HIERARCHY
ROOT ui
{
	 OFFSET 0 0 0
	 CHANNELS 3 XPosition YPosition Z Position
	 EndSite
	 {
	 OFFSET 0 -1 0
	 }
}
ROOT li
{
	 OFFSET 0 0 0
	 CHANNELS 3 XPosition YPosition Z Position
	 EndSite
	 {
	 OFFSET 0 -1 0
	 }
}
ROOT ul
{
	 OFFSET 0 0 0
	 CHANNELS 3 XPosition YPosition Z Position
	 EndSite
	 {
	 OFFSET 0 -1 0
	 }
}
ROOT ll
{
	 OFFSET 0 0 0
	 CHANNELS 3 XPosition YPosition Z Position
	 EndSite
	 {
	 OFFSET 0 -1 0
	 }
}
ROOT tt
{
	 OFFSET 0 0 0
	 CHANNELS 3 XPosition YPosition Z Position
	 EndSite
	 {
	 OFFSET 0 -1 0
	 }
}
ROOT tb
{
	 OFFSET 0 0 0
	 CHANNELS 3 XPosition YPosition Z Position
	 EndSite
	 {
	 OFFSET 0 -1 0
	 }
}
ROOT td
{
	 OFFSET 0 0 0
	 CHANNELS 3 XPosition YPosition Z Position
	 EndSite
	 {
	 OFFSET 0 -1 0
	 }
}
ROOT v
{
	 OFFSET 0 0 0
	 CHANNELS 3 XPosition YPosition Z Position
	 EndSite
	 {
	 OFFSET 0 -1 0
	 }
}
ROOT bn
{
	 OFFSET 0 0 0
	 CHANNELS 3 XPosition YPosition Z Position
	 EndSite
	 {
	 OFFSET 0 -1 0
	 }
}
MOTION
Frames: 19
Frame Time: 0.002
-0.027975381851196288	-7.021499872207641E-4	0		0.587569580078125	-2.680094970703125	0		-0.8364981079101562	0.26703643798828125	0		-0.2928461608886719	-3.0074560546875	0		1.6624871826171874	-1.3352225341796875	0		2.971721435546875	-0.043459884643554686	0		4.46798681640625	0.6457711181640625	0		5.93826025390625	0.4302671813964844	0		-0.13035792541503907	5.93217578125	0		
0.02473029136657715	-0.0026914379596710207	0		0.6123452758789063	-2.6856865234375	0		-0.7997899169921875	0.2662220458984375	0		-0.324945068359375	-3.0043349609375	0		1.6612310791015625	-1.33842236328125	0		2.97244677734375	-0.04362762069702148	0		4.47358837890625	0.638605224609375	0		5.93096484375	0.43033843994140625	0		0.0034173998832702636	5.95510986328125	0		
-0.053553901672363284	-9.551860094070434E-4	0		0.5622864379882813	-2.67728955078125	0		-0.8351045532226562	0.2663509521484375	0		-0.31321685791015624	-3.013799560546875	0		1.6689017333984375	-1.3457342529296874	0		2.9947744140625	-0.07206868743896484	0		4.46208154296875	0.6256860961914062	0		5.93162548828125	0.4293341064453125	0		-0.13230784606933593	5.946595703125	0		
0.030139196395874025	6.496080160140991E-4	0		0.5951466064453125	-2.673982177734375	0		-0.8253545532226563	0.273881103515625	0		-0.30730935668945314	-3.0081875	0		1.6376143798828124	-1.347526123046875	0		2.988688720703125	-0.05311576461791992	0		4.4667861328125	0.6315780639648437	0		5.94026171875	0.4292562866210938	0		-0.11304649353027343	5.94103515625	0		
-0.0181832332611084	0.004988249778747559	0		0.5938914794921875	-2.6772216796875	0		-0.7887529907226563	0.2730596618652344	0		-0.2895066833496094	-3.008729736328125	0		1.671158203125	-1.36015771484375	0		2.958846435546875	-0.08884168243408203	0		4.4582001953125	0.6186661376953125	0		5.92387158203125	0.4305370788574219	0		0.0034125099182128905	5.95521240234375	0		
0.02728661346435547	-0.003892549991607666	0		0.5895655517578124	-2.6834140625	0		-0.8071783447265625	0.27395852661132813	0		-0.3257435302734375	-3.009564697265625	0		1.6697855224609375	-1.3633194580078125	0		2.993427001953125	-0.08938720703125	0		4.44773876953125	0.6188018188476563	0		5.920525390625	0.4386763916015625	0		0.003603760004043579	5.95491650390625	0		
-0.048112232208251955	0.00180138099193573	0		0.5902770385742188	-2.68366259765625	0		-0.7967838745117187	0.26448712158203125	0		-0.29307720947265625	-3.0152880859375	0		1.6870836181640625	-1.38871240234375	0		2.99664013671875	-0.11450994110107422	0		4.4130361328125	0.60426708984375	0		5.9169228515625	0.4308405151367187	0		-0.1295546875	5.9333466796875	0		
0.028295902252197264	-0.004455484867095947	0		0.5909390258789062	-2.683900634765625	0		-0.8323202514648438	0.26461676025390624	0		-0.3613354797363281	-3.010700439453125	0		1.6876571044921875	-1.388875244140625	0		2.988153076171875	-0.11246805572509766	0		4.42247265625	0.6041748046875	0		5.9263583984375	0.4298509826660156	0		-0.16454251098632813	5.928509765625	0		
-0.04720780944824219	0.0012515870332717896	0		0.5935697631835938	-2.68215185546875	0		-0.822810546875	0.27218035888671877	0		-0.32572393798828125	-3.012436767578125	0		1.6950859375	-1.396116455078125	0		3.00515087890625	-0.14674781799316405	0		4.40577001953125	0.5974229736328125	0		5.92285791015625	0.4380324401855469	0		-0.14937362670898438	5.939041015625	0		
0.028198263168334962	0.003045964002609253	0		0.5941144409179687	-2.68236328125	0		-0.8324530029296875	0.27200592041015625	0		-0.3370682678222656	-3.0055546875	0		1.68742236328125	-1.4061552734375	0		3.001470947265625	-0.1517545623779297	0		4.40594091796875	0.5844551391601562	0		5.9232041015625	0.4381600952148437	0		-0.13044248962402344	5.933541015625	0		
-0.05045731353759766	0.004816501140594482	0		0.5905355224609375	-2.687507568359375	0		-0.8051329345703125	0.27238470458984376	0		-0.3046310119628906	-3.01120947265625	0		1.6965772705078126	-1.4263984375	0		3.008564697265625	-0.17089483642578124	0		4.401966796875	0.563537109375	0		5.924478515625	0.4362668151855469	0		-0.13145437622070313	5.9343154296875	0		
0.0337558479309082	-0.0014533419609069824	0		0.5889369506835938	-2.68966015625	0		-0.8418614501953126	0.2725984191894531	0		-0.3303111572265625	-3.02110693359375	0		1.6918487548828125	-1.4334537353515624	0		2.99765625	-0.1868038330078125	0		4.40205615234375	0.5505636596679687	0		5.92473828125	0.43637359619140625	0		-0.131488037109375	5.93409912109375	0		
-0.023928394317626955	0.004088932991027832	0		0.5893113403320313	-2.6898193359375	0		-0.8307396240234375	0.2632348327636719	0		-0.3299212341308594	-3.02130908203125	0		1.704987548828125	-1.4477232666015625	0		3.015485107421875	-0.22107342529296875	0		4.37526806640625	0.5499219970703125	0		5.9210546875	0.44351400756835935	0		-0.09926919555664063	5.9535029296875	0		
-0.011681706428527831	0.005774529933929443	0		0.576629150390625	-2.69079638671875	0		-0.817378173828125	0.27487518310546877	0		-0.324504150390625	-3.01554833984375	0		1.719078857421875	-1.462992919921875	0		3.026803466796875	-0.21425537109375	0		4.38713037109375	0.5227840576171875	0		5.93924609375	0.4423601989746094	0		-0.13434197998046876	5.94877392578125	0		
0.03443455123901367	-0.0019385089874267578	0		0.5899332275390625	-2.690079833984375	0		-0.7951188354492188	0.2794351806640625	0		-0.3292757263183594	-3.021635009765625	0		1.71629541015625	-1.4660400390625	0		3.00558251953125	-0.24903387451171874	0		4.3712353515625	0.5159840698242187	0		5.93043994140625	0.442521484375	0		-0.11637439727783203	5.94440625	0		
0.029686445236206054	0.002008702039718628	0		0.5881724853515625	-2.692156494140625	0		-0.841019775390625	0.271874755859375	0		-0.30998056030273435	-3.019994873046875	0		1.7381307373046875	-1.4983873291015626	0		3.003578369140625	-0.2660534973144531	0		4.36208935546875	0.4890841064453125	0		5.93864306640625	0.4434437561035156	0		-0.11729808807373047	5.94530029296875	0		
0.030787897109985352	-0.0060952348709106445	0		0.5942496337890625	-2.705314453125	0		-0.8408225708007813	0.271770263671875	0		-0.3358465576171875	-3.028767822265625	0		1.7132928466796875	-1.5031436767578126	0		3.0164462890625	-0.2932630310058594	0		4.35202294921875	0.4681795654296875	0		5.9339501953125	0.4524970703125	0		-0.132317138671875	5.9343935546875	0		
-0.01795922660827637	-0.001555891990661621	0		0.5504281005859375	-2.707833984375	0		-0.8206385498046875	0.27044766235351564	0		-0.33563262939453126	-3.02883935546875	0		1.7311871337890625	-1.52842724609375	0		3.03353369140625	-0.3025290832519531	0		4.3561328125	0.46108145141601564	0		5.9552451171875	0.46019400024414064	0		-0.15009529113769532	5.938546875	0		
0.03027847671508789	0.001799644947052002	0		0.5966654052734375	-2.703456298828125	0		-0.8163961181640625	0.2743544616699219	0		-0.3334307556152344	-3.02690966796875	0		1.7382838134765626	-1.535569091796875	0		3.0282763671875	-0.3385256652832031	0		4.352978515625	0.4330530395507812	0		5.95565087890625	0.4771171264648438	0		-0.11580319213867188	5.9440771484375	0		
